<svg width="32" height="32" viewBox="0 0 32 32" fill="none" xmlns="http://www.w3.org/2000/svg">
<path d="M24.4384 15.7159H26.6706C27.1752 15.7159 27.5857 15.3053 27.5857 14.8007V12.5686C27.5857 12.0639 27.1752 11.6534 26.6706 11.6534H24.4384C23.9338 11.6534 23.5232 12.0639 23.5232 12.5686V14.8007C23.5232 15.3053 23.9338 15.7159 24.4384 15.7159ZM24.4607 12.5909H26.6482V14.7784H24.4607V12.5909ZM24.4384 21.6534H26.6706C27.1752 21.6534 27.5857 21.2428 27.5857 20.7382V18.5061C27.5857 18.0014 27.1752 17.5909 26.6706 17.5909H24.4384C23.9338 17.5909 23.5232 18.0014 23.5232 18.5061V20.7382C23.5232 21.2428 23.9338 21.6534 24.4384 21.6534ZM24.4607 18.5284H26.6482V20.7159H24.4607V18.5284ZM18.0687 15.7159H20.3008C20.8054 15.7159 21.216 15.3053 21.216 14.8007V12.5686C21.216 12.0639 20.8054 11.6534 20.3008 11.6534H18.0687C17.5641 11.6534 17.1535 12.0639 17.1535 12.5686V14.8007C17.1535 15.3053 17.5641 15.7159 18.0687 15.7159ZM18.091 12.5909H20.2785V14.7784H18.091V12.5909ZM7.56131 23.25H5.32919C4.82456 23.25 4.414 23.6606 4.414 24.1652V26.3973C4.414 26.9019 4.82456 27.3125 5.32919 27.3125H7.56131C8.06594 27.3125 8.4765 26.9019 8.4765 26.3973V24.1652C8.4765 23.6606 8.06594 23.25 7.56131 23.25ZM7.539 26.375H5.3515V24.1875H7.539V26.375ZM7.56131 11.6534H5.32919C4.82456 11.6534 4.414 12.0639 4.414 12.5686V14.8007C4.414 15.3053 4.82456 15.7159 5.32919 15.7159H7.56131C8.06594 15.7159 8.4765 15.3053 8.4765 14.8007V12.5686C8.4765 12.0639 8.06594 11.6534 7.56131 11.6534ZM7.539 14.7784H5.3515V12.5909H7.539V14.7784ZM18.0687 21.5142H20.3008C20.8054 21.5142 21.216 21.1036 21.216 20.599V18.3669C21.216 17.8622 20.8054 17.4517 20.3008 17.4517H18.0687C17.5641 17.4517 17.1535 17.8622 17.1535 18.3669V20.599C17.1535 21.1036 17.5641 21.5142 18.0687 21.5142ZM18.091 18.3892H20.2785V20.5767H18.091V18.3892ZM28.0513 2.14212H26.0472V1.42544C26.0472 0.639437 25.4077 0 24.6217 0H24.4065C23.6206 0 22.9811 0.639437 22.9811 1.42544V2.14212H9.01863V1.42544C9.01863 0.639437 8.37919 0 7.59319 0H7.37794C6.59194 0 5.9525 0.639437 5.9525 1.42544V2.14212H3.94844C2.65437 2.14212 1.60156 3.19494 1.60156 4.489V29.6562C1.60156 30.9486 2.65294 32 3.94531 32H28.0546C29.3469 32 30.3983 30.9486 30.3983 29.6562V4.489C30.3982 3.19494 29.3454 2.14212 28.0513 2.14212ZM23.9186 1.42544C23.9186 1.15637 24.1375 0.9375 24.4066 0.9375H24.6218C24.8909 0.9375 25.1097 1.15637 25.1097 1.42544V2.14212H23.9186V1.42544ZM6.89006 1.42544C6.89006 1.15637 7.10894 0.9375 7.378 0.9375H7.59325C7.86231 0.9375 8.08119 1.15637 8.08119 1.42544V2.14212H6.89013V1.42544H6.89006ZM29.4607 29.6562C29.4607 30.4317 28.8299 31.0625 28.0545 31.0625H3.94525C3.16981 31.0625 2.539 30.4317 2.539 29.6562V29.6533C2.93175 29.9492 3.41994 30.125 3.94844 30.125H22.9536C23.5805 30.125 24.1699 29.8809 24.6131 29.4376L29.4607 24.5899V29.6562ZM24.1348 28.5901C24.1716 28.4384 24.1916 28.2802 24.1916 28.1174V24.9884C24.1916 24.3984 24.6716 23.9183 25.2617 23.9183H28.3906C28.5534 23.9183 28.7116 23.8983 28.8633 23.8616L24.1348 28.5901ZM29.4607 8.84087H9.48738C9.2285 8.84087 9.01863 9.05075 9.01863 9.30962C9.01863 9.5685 9.2285 9.77837 9.48738 9.77837H29.4607V21.9107C29.4607 22.5008 28.9807 22.9809 28.3906 22.9809H25.2617C24.1547 22.9809 23.2541 23.8815 23.2541 24.9884V28.1174C23.2541 28.7075 22.774 29.1876 22.184 29.1876H3.94844C3.17131 29.1876 2.53906 28.5553 2.53906 27.7781V9.77837H7.61238C7.87125 9.77837 8.08113 9.5685 8.08113 9.30962C8.08113 9.05075 7.87125 8.84087 7.61238 8.84087H2.539V4.489C2.539 3.71187 3.17125 3.07962 3.94837 3.07962H5.9525V4.45787C5.9525 5.24387 6.59194 5.88331 7.37794 5.88331C7.63681 5.88331 7.84669 5.67344 7.84669 5.41456C7.84669 5.15569 7.63681 4.94581 7.37794 4.94581C7.10888 4.94581 6.89 4.72694 6.89 4.45787V3.07962H22.9811V4.45787C22.9811 5.24387 23.6206 5.88331 24.4066 5.88331C24.6654 5.88331 24.8753 5.67344 24.8753 5.41456C24.8753 5.15569 24.6654 4.94581 24.4066 4.94581C24.1375 4.94581 23.9186 4.72694 23.9186 4.45787V3.07962H28.0514C28.8285 3.07962 29.4607 3.71187 29.4607 4.489V8.84087ZM7.56131 17.4517H5.32919C4.82456 17.4517 4.414 17.8622 4.414 18.3669V20.599C4.414 21.1036 4.82456 21.5142 5.32919 21.5142H7.56131C8.06594 21.5142 8.4765 21.1036 8.4765 20.599V18.3669C8.4765 17.8622 8.06594 17.4517 7.56131 17.4517ZM7.539 20.5767H5.3515V18.3892H7.539V20.5767ZM11.6989 15.7159H13.9311C14.4357 15.7159 14.8463 15.3053 14.8463 14.8007V12.5686C14.8463 12.0639 14.4357 11.6534 13.9311 11.6534H11.6989C11.1943 11.6534 10.7838 12.0639 10.7838 12.5686V14.8007C10.7838 15.3053 11.1943 15.7159 11.6989 15.7159ZM11.7213 12.5909H13.9088V14.7784H11.7213V12.5909ZM18.0904 26.375C18.0788 26.1264 17.8736 25.9286 17.6222 25.9286C17.3633 25.9286 17.1534 26.1384 17.1534 26.3973C17.1534 26.9019 17.564 27.3125 18.0686 27.3125H20.3007C20.8054 27.3125 21.2159 26.9019 21.2159 26.3973V24.1652C21.2159 23.6606 20.8054 23.25 20.3007 23.25H18.0686C17.564 23.25 17.1534 23.6606 17.1534 24.1652V24.8089C17.1534 25.0678 17.3633 25.2777 17.6222 25.2777C17.8811 25.2777 18.0909 25.0678 18.0909 24.8089V24.1875H20.2784V26.375H18.0904ZM11.6989 21.5142H13.9311C14.4357 21.5142 14.8463 21.1036 14.8463 20.599V18.3669C14.8463 17.8622 14.4357 17.4517 13.9311 17.4517H11.6989C11.1943 17.4517 10.7838 17.8622 10.7838 18.3669V20.599C10.7838 21.1036 11.1943 21.5142 11.6989 21.5142ZM11.7213 18.3892H13.9088V20.5767H11.7213V18.3892ZM11.6989 27.3125H13.9311C14.4357 27.3125 14.8463 26.9019 14.8463 26.3973V24.1652C14.8463 23.6606 14.4357 23.25 13.9311 23.25H11.6989C11.1943 23.25 10.7838 23.6606 10.7838 24.1652V26.3973C10.7838 26.9019 11.1943 27.3125 11.6989 27.3125ZM11.7213 24.1875H13.9088V26.375H11.7213V24.1875Z" fill="#D24A43"/>
</svg>
