<svg width="64" height="64" viewBox="0 0 64 64" fill="none" xmlns="http://www.w3.org/2000/svg">
<path d="M25.0531 8.1806C28.8091 4.15389 35.1909 4.15389 38.9469 8.1806L39.1413 8.389C40.9352 10.3121 43.3853 11.492 46.0073 11.6955L46.2914 11.7175C51.7815 12.1435 55.7605 17.133 54.9541 22.5802L54.9124 22.8621C54.5273 25.4636 55.1324 28.1149 56.6081 30.2917L56.768 30.5275C59.858 35.0854 58.4379 41.3073 53.6764 44.0731L53.4299 44.2162C51.1559 45.5371 49.4603 47.6633 48.6785 50.1743L48.5938 50.4464C46.9569 55.704 41.2071 58.473 36.0759 56.4747L35.8103 56.3713C33.3597 55.417 30.6403 55.417 28.1897 56.3713L27.9241 56.4747C22.7929 58.473 17.0431 55.704 15.4062 50.4464L15.3215 50.1743C14.5397 47.6633 12.8441 45.5371 10.5701 44.2162L10.3236 44.0731C5.56209 41.3073 4.14201 35.0854 7.23196 30.5275L6.8181 30.247L7.23196 30.5275L7.39188 30.2917C8.86759 28.1149 9.47273 25.4636 9.08763 22.8621L9.04589 22.5802C8.23953 17.133 12.2185 12.1435 17.7086 11.7175L17.9927 11.6955C20.6147 11.492 23.0648 10.3121 24.8587 8.389L25.0531 8.1806Z" stroke="#D24A43"/>
<path d="M25 26C25 26 28.1538 33.4286 32 33.4286C35.8462 33.4286 39 26 39 26L32 39L25 26Z" fill="#C4C4C4"/>
</svg>
