<svg width="9" height="12" viewBox="0 0 9 12" fill="none" xmlns="http://www.w3.org/2000/svg">
<path d="M8.92915 3.22631L5.7086 0.0694687C5.66322 0.0249844 5.6017 0 5.5375 0H0.999458C0.448345 0 0 0.439477 0 0.979687V11.0203C0 11.5605 0.448345 12 0.999458 12H8.00054C8.55165 12 9 11.5605 9 11.0203V3.39401C9 3.33113 8.97451 3.27077 8.92915 3.22631ZM5.77947 0.809742L8.17394 3.1568H6.29501C6.01074 3.1568 5.7795 2.93011 5.7795 2.65144V0.809742H5.77947ZM8.5161 11.0203C8.5161 11.299 8.28484 11.5257 8.00054 11.5257H0.999458C0.715186 11.5257 0.4839 11.299 0.4839 11.0203V0.979687C0.4839 0.701039 0.715186 0.474328 0.999458 0.474328H5.29555V2.65148C5.29555 3.1917 5.74387 3.63117 6.29498 3.63117H8.5161V11.0203V11.0203Z" fill="#D24A43"/>
<path d="M6.43527 6.02344H2.56422C2.4306 6.02344 2.32227 6.12963 2.32227 6.2606C2.32227 6.39157 2.4306 6.49777 2.56422 6.49777H6.43527C6.56893 6.49777 6.67722 6.39157 6.67722 6.2606C6.67722 6.12963 6.56893 6.02344 6.43527 6.02344Z" fill="#D24A43"/>
<path d="M6.43527 7.08203H2.56422C2.4306 7.08203 2.32227 7.18823 2.32227 7.31919C2.32227 7.45016 2.4306 7.55636 2.56422 7.55636H6.43527C6.56893 7.55636 6.67722 7.45016 6.67722 7.31919C6.67722 7.18823 6.56893 7.08203 6.43527 7.08203Z" fill="#D24A43"/>
<path d="M6.43527 8.14062H2.56422C2.4306 8.14062 2.32227 8.24682 2.32227 8.37779C2.32227 8.50876 2.4306 8.61495 2.56422 8.61495H6.43527C6.56893 8.61495 6.67722 8.50876 6.67722 8.37779C6.67722 8.24682 6.56893 8.14062 6.43527 8.14062Z" fill="#D24A43"/>
<path d="M5.17718 9.20312H2.56422C2.4306 9.20312 2.32227 9.30932 2.32227 9.44029C2.32227 9.57126 2.4306 9.67745 2.56422 9.67745H5.17718C5.31084 9.67745 5.41913 9.57126 5.41913 9.44029C5.41913 9.30932 5.31084 9.20312 5.17718 9.20312Z" fill="#D24A43"/>
</svg>
