<svg width="12" height="12" viewBox="0 0 12 12" fill="none" xmlns="http://www.w3.org/2000/svg">
<path d="M6.668 3.668C6.484 3.852 6.252 3.944 5.972 3.944C5.692 3.944 5.46 3.852 5.276 3.668C5.092 3.476 5 3.244 5 2.972C5 2.7 5.092 2.472 5.276 2.288C5.46 2.096 5.692 2 5.972 2C6.252 2 6.484 2.096 6.668 2.288C6.852 2.472 6.944 2.7 6.944 2.972C6.944 3.244 6.852 3.476 6.668 3.668ZM5.312 10.34V4.748H6.62V10.34H5.312Z" fill="#131313"/>
<circle cx="6" cy="6" r="5.75" stroke="#131313" stroke-width="0.5"/>
</svg>
