<svg width="64" height="64" viewBox="0 0 64 64" fill="none" xmlns="http://www.w3.org/2000/svg">
<g clip-path="url(#clip0_1694_3603)">
<path d="M54.8394 14.4662H53.508C52.4809 15.8223 50.8579 16.7039 49.0236 16.7039C45.9298 16.7039 43.4107 14.2017 43.4107 11.1285C43.4107 8.05532 45.9298 5.5531 49.0236 5.5531C50.8579 5.5531 52.4852 6.43475 53.508 7.79082H54.8394C53.6771 5.7966 51.5046 4.45312 49.0194 4.45312C45.3127 4.45312 42.2949 7.45076 42.2949 11.1327C42.2949 14.8147 45.3085 17.8123 49.0194 17.8123C51.5046 17.8081 53.6771 16.4604 54.8394 14.4662Z" fill="#C8C8C8"/>
<path d="M22.4082 43.1289V62.6094H25.2104L27.9238 44.5228H28.0126V62.6094H29.4116V43.1289H26.6094L23.9002 61.2155H23.8114V43.1289H22.4082Z" fill="#C8C8C8"/>
<path d="M49.0229 13.9147C50.5698 13.9147 51.8251 12.6678 51.8251 11.1312C51.8251 9.59458 50.5698 8.34766 49.0229 8.34766C47.476 8.34766 46.2207 9.59458 46.2207 11.1312C46.2207 12.6678 47.476 13.9147 49.0229 13.9147Z" fill="#C8C8C8"/>
<path d="M15.4057 62.6094H21.0101V55.6527H19.6069V43.1289H15.4057V55.6527H11.2045V43.1289H4.20117V59.8258H15.4057V62.6094Z" fill="#C8C8C8"/>
<path d="M41.4461 48.9931C41.4461 52.23 40.212 54.875 37.7479 54.875C36.7885 54.875 36.1207 54.6609 35.8248 54.3628C35.6981 54.2536 35.6178 54.1067 35.6178 53.9388C35.6178 53.6071 35.9305 53.3384 36.3194 53.3384C36.5434 53.3384 36.7378 53.4266 36.8688 53.5651C36.9364 53.4433 36.9787 53.3132 36.9787 53.1705C36.9787 52.6205 36.3997 52.1712 35.6896 52.1712C34.9753 52.1712 34.4005 52.6205 34.4005 53.1705C34.4005 53.5483 34.671 53.8758 35.0725 54.0479V54.0689C34.4597 53.8842 33.9271 53.3846 33.9271 52.7128C33.9271 51.9487 34.6668 51.3064 35.491 51.3064V44.8577C35.491 44.5092 35.5332 43.955 36.0996 43.552C36.6194 43.1825 37.1351 43.1237 37.7479 43.1237C40.2078 43.1279 41.4461 45.7561 41.4461 48.9931ZM44.8231 48.9931C44.8231 44.9878 41.6871 41.7383 37.8198 41.7383H30.8164V41.8726C31.6152 42.1329 32.1774 42.7459 32.1774 43.4596V53.2922V60.8913C32.1774 61.605 31.6152 62.2179 30.8164 62.4782V62.6126H36.8519V62.4782C36.0531 62.2179 35.491 61.605 35.491 60.8913V55.8364C36.2179 56.1009 37.0041 56.2479 37.8198 56.2479C41.6871 56.2437 44.8231 52.9983 44.8231 48.9931Z" fill="#C8C8C8"/>
<path d="M39.6541 31.9987L36.4208 33.275V30.7266L39.6541 31.9987ZM44.8189 34.7822V31.9987V29.2152L30.8164 23.6523V28.4721L33.6186 29.6056V34.3917L30.8164 35.5253V40.345L44.8189 34.7822Z" fill="#C8C8C8"/>
<path d="M36.4149 1.39062V20.8711H33.6127V2.80548H29.4116V20.8711H22.4082V1.39062H36.4149Z" fill="#C8C8C8"/>
<path d="M26.6106 25.3443V40.345H29.4128V23.6523H22.4094V35.8738C22.363 37.4733 22.0967 37.9519 20.5371 37.9519V40.345H20.8499C23.428 40.345 25.2116 38.9805 25.2116 35.8738V25.3443H26.6106Z" fill="#C8C8C8"/>
<path d="M14.6187 31.9987C14.6187 34.3036 12.7379 36.1718 10.4176 36.1718C8.09719 36.1718 6.21638 34.3036 6.21638 31.9987C6.21638 29.6938 8.09719 27.8255 10.4176 27.8255C12.7379 27.8255 14.6187 29.6938 14.6187 31.9987ZM19.6061 40.345V23.6523H14.6187V25.1596C13.2536 24.2107 11.5968 23.6523 9.80471 23.6523C5.16397 23.6523 1.40235 27.3889 1.40235 31.9987C1.39812 36.6085 5.16397 40.345 9.80471 40.345C11.5968 40.345 13.2536 39.7866 14.6187 38.8378V40.345H19.6061Z" fill="#C8C8C8"/>
<path d="M22.4091 2.87685V1.39062H14.9408V2.87685H19.2519L15.672 10.7152L11.0313 2.87685H13.508V1.39062H0V2.87685H2.97125L12.0963 18.3983C12.0963 18.3983 12.0456 18.5998 11.8301 18.9357C11.1158 20.212 9.93235 21.1146 8.4108 21.1146C7.40911 21.1146 6.56803 20.5562 6.64834 20.5562C8.32205 20.5562 9.68299 19.2086 9.68299 17.5418C9.68299 15.875 8.32627 14.5274 6.65256 14.5274C4.97886 14.5274 3.61791 15.875 3.61791 17.5418C3.61791 20.0986 5.76499 22.1684 8.4108 22.1684C10.3592 22.1684 12.0541 21.0013 12.9501 19.0868L20.448 2.87685H22.4091Z" fill="#C8C8C8"/>
<path d="M59.7117 7.79218C58.2789 3.27893 54.0313 0 49.0229 0C42.8437 0 37.8184 4.99187 37.8184 11.1299C37.8184 17.2679 42.8437 22.2598 49.0229 22.2598C54.0313 22.2598 58.2832 18.9808 59.7117 14.4676H56.1192C54.8555 17.1042 52.1505 18.9305 49.0229 18.9305C44.6907 18.9347 41.1658 15.4332 41.1658 11.1299C41.1658 6.82655 44.6907 3.32511 49.0229 3.32511C52.1505 3.32511 54.8597 5.1514 56.1192 7.78798L59.7117 7.79218Z" fill="#C8C8C8"/>
<path d="M61.6272 23.8958V23.6523H59.2477H55.2832C55.2832 38.5188 53.8715 40.3997 50.6931 41.0546V23.6523H44.7379V23.8958C46.1496 24.3913 47.1175 25.655 47.1175 28.661V55.0604C47.1175 59.5904 44.7464 61.4965 41.2891 62.2438V62.6132H50.6931V42.4149C53.7574 43.6954 55.0718 48.4395 55.0718 52.0963C55.0718 57.0504 57.4767 62.8316 63.0262 64.0071C60.7354 60.1572 59.6957 55.7321 59.6957 51.4834C59.6957 45.3915 57.1809 42.8347 54.4167 41.7431C56.8512 39.0772 58.825 35.9536 58.825 30.6132C58.825 28.111 59.0068 27.0362 59.2181 26.4401C59.7126 25.042 60.4522 24.3409 61.6272 23.8958Z" fill="#C8C8C8"/>
</g>
<defs>
<clipPath id="clip0_1694_3603">
<rect width="64" height="64" fill="white"/>
</clipPath>
</defs>
</svg>
