<svg width="48" height="48" viewBox="0 0 48 48" fill="none" xmlns="http://www.w3.org/2000/svg">
<path d="M18.7357 1.29713C22.1064 -0.0990431 25.8936 -0.0990428 29.2643 1.29713L36.331 4.22424C39.7016 5.62042 42.3796 8.29839 43.7758 11.669L46.7029 18.7357C48.099 22.1064 48.099 25.8936 46.7029 29.2643L43.7758 36.331C42.3796 39.7016 39.7016 42.3796 36.331 43.7758L29.2643 46.7029C25.8936 48.099 22.1064 48.099 18.7357 46.7029L11.669 43.7758C8.29839 42.3796 5.62042 39.7016 4.22424 36.331L1.29713 29.2643C-0.099043 25.8936 -0.0990429 22.1064 1.29713 18.7357L4.22424 11.669C5.62042 8.29839 8.29839 5.62042 11.669 4.22424L18.7357 1.29713Z" stroke="#131313" stroke-width="0.5"/>
<rect x="30.5454" y="16" width="2.05704" height="20.5704" transform="rotate(45 30.5454 16)" fill="#131313"/>
<rect x="16" y="17.4531" width="2.05704" height="20.5704" transform="rotate(-45 16 17.4531)" fill="#131313"/>
</svg>
