<svg width="118" height="120" viewBox="0 0 118 120" fill="none" xmlns="http://www.w3.org/2000/svg">
<path d="M69.1603 2.33821L69.1602 2.33859L69.1739 2.34061L75.4285 3.26577C78.0713 3.65669 80.6073 4.57973 82.8831 5.97904L88.2691 9.29067L88.2689 9.291L88.281 9.29759L93.842 12.3061C96.1917 13.5774 98.2591 15.3121 99.9191 17.4054L103.848 22.3594L103.847 22.3597L103.856 22.37L108.053 27.0991C109.826 29.0973 111.176 31.4345 112.02 33.9693L114.017 39.9682L114.016 39.9683L114.021 39.9812L116.348 45.8603C117.33 48.3446 117.799 51.0024 117.725 53.6729L117.55 59.9931L117.55 59.9931L117.55 60.0069L117.725 66.3271C117.799 68.9976 117.33 71.6554 116.348 74.1397L114.021 80.0188L114.021 80.0187L114.017 80.0318L112.02 86.0307C111.176 88.5655 109.826 90.9027 108.053 92.9009L103.856 97.63L103.856 97.6297L103.848 97.6406L99.9191 102.595C98.2591 104.688 96.1917 106.423 93.842 107.694L88.281 110.702L88.2809 110.702L88.2691 110.709L82.8831 114.021C80.6073 115.42 78.0713 116.343 75.4285 116.734L69.1739 117.659L69.1739 117.659L69.1603 117.662L62.9665 118.932C60.3494 119.468 57.6506 119.468 55.0335 118.932L48.8397 117.662L48.8398 117.661L48.8261 117.659L42.5715 116.734C39.9287 116.343 37.3927 115.42 35.1169 114.021L29.7309 110.709L29.7311 110.709L29.719 110.702L24.158 107.694C21.8083 106.423 19.7409 104.688 18.081 102.595L14.1525 97.6406L14.1528 97.6403L14.1436 97.63L9.947 92.9009C8.17377 90.9027 6.82437 88.5655 5.98047 86.0307L3.98327 80.0318L3.98364 80.0317L3.97854 80.0188L1.65248 74.1396C0.66962 71.6554 0.200979 68.9976 0.274917 66.3271L0.449901 60.0069L0.450285 60.0069L0.449901 59.9931L0.274917 53.6729C0.200979 51.0024 0.66962 48.3446 1.65248 45.8604L3.97854 39.9812L3.9789 39.9813L3.98327 39.9682L5.98047 33.9693C6.82437 31.4345 8.17377 29.0973 9.947 27.0991L14.1436 22.37L14.1439 22.3703L14.1525 22.3594L18.081 17.4054C19.7409 15.3121 21.8083 13.5774 24.158 12.3061L29.719 9.29759L29.7191 9.29793L29.7309 9.29067L35.1169 5.97904C37.3927 4.57973 39.9287 3.65669 42.5715 3.26577L48.8261 2.34061L48.8261 2.34099L48.8397 2.33821L55.0335 1.0684C57.6506 0.531846 60.3494 0.531846 62.9665 1.0684L69.1603 2.33821Z" stroke="#131313" stroke-width="0.5"/>
</svg>
