<svg width="64" height="64" viewBox="0 0 64 64" fill="none" xmlns="http://www.w3.org/2000/svg">
<path d="M24.8534 1.42155C29.4293 -0.473849 34.5707 -0.473848 39.1466 1.42155L48.5688 5.32437C53.1447 7.21976 56.7802 10.8553 58.6756 15.4312L62.5785 24.8534C64.4738 29.4293 64.4738 34.5707 62.5785 39.1466L58.6756 48.5688C56.7802 53.1447 53.1447 56.7802 48.5688 58.6756L39.1466 62.5785C34.5707 64.4738 29.4293 64.4738 24.8534 62.5785L15.4312 58.6756C10.8553 56.7802 7.21976 53.1447 5.32437 48.5688L1.42155 39.1466C-0.473848 34.5707 -0.473848 29.4293 1.42155 24.8534L5.32437 15.4312C7.21976 10.8553 10.8553 7.21976 15.4312 5.32437L24.8534 1.42155Z" fill="#D24A43"/>
</svg>
