<svg width="186" height="56" viewBox="0 0 186 56" fill="none" xmlns="http://www.w3.org/2000/svg">
<path d="M72.2302 1.24385C85.5289 -0.414618 100.471 -0.414617 113.77 1.24385L141.153 4.65882C154.452 6.31729 165.018 9.49837 170.526 13.5023L181.869 21.7467C187.377 25.7506 187.377 30.2494 181.869 34.2533L170.526 42.4977C165.018 46.5016 154.452 49.6827 141.153 51.3412L113.77 54.7561C100.471 56.4146 85.5289 56.4146 72.2302 54.7561L44.8468 51.3412C31.5482 49.6827 20.9824 46.5016 15.4739 42.4977L4.13137 34.2533C-1.37712 30.2494 -1.37712 25.7506 4.13137 21.7467L15.4739 13.5023C20.9824 9.49837 31.5482 6.31729 44.8468 4.65882L72.2302 1.24385Z" fill="#D24A43"/>
</svg>
