<svg width="48" height="48" viewBox="0 0 48 48" fill="none" xmlns="http://www.w3.org/2000/svg">
<path d="M44.2912 6.28985C43.5712 5.67929 42.4403 5.59193 41.271 6.06137H41.2691C40.0394 6.55481 6.45856 20.9586 5.09152 21.5471C4.84288 21.6335 2.67136 22.4438 2.89504 24.2486C3.09472 25.8758 4.84 26.5497 5.05312 26.6274L13.5904 29.5506C14.1568 31.4361 16.2448 38.3923 16.7066 39.8783C16.9946 40.8047 17.464 42.022 18.2867 42.2726C19.0086 42.551 19.7267 42.2966 20.1914 41.9318L25.4109 37.0905L33.8368 43.6617L34.0374 43.7817C34.6096 44.0351 35.1578 44.1618 35.681 44.1618C36.0851 44.1618 36.473 44.086 36.8435 43.9343C38.1059 43.4159 38.6109 42.2131 38.6637 42.0767L44.9574 9.36281C45.3414 7.61561 44.8077 6.72665 44.2912 6.28985ZM21.1197 30.7199L18.2397 38.3999L15.3597 28.7999L37.4397 12.4799L21.1197 30.7199Z" fill="#131313"/>
</svg>
