<svg width="16" height="10" viewBox="0 0 16 10" fill="none" xmlns="http://www.w3.org/2000/svg">
<path d="M15.8574 8.57811C15.8144 8.50611 15.5483 7.92807 14.2683 6.73998C12.9282 5.49589 13.1082 5.6979 14.7223 3.54674C15.7054 2.23664 16.0984 1.43658 15.9754 1.09456C15.8584 0.768534 15.1353 0.854541 15.1353 0.854541L12.7311 0.868542C12.7311 0.868542 12.5531 0.84454 12.4201 0.923546C12.2911 1.00155 12.2081 1.18156 12.2081 1.18156C12.2081 1.18156 11.8271 2.19564 11.319 3.0577C10.248 4.87684 9.81893 4.97285 9.64392 4.85984C9.23689 4.59682 9.3389 3.80176 9.3389 3.23772C9.3389 1.47459 9.60592 0.739532 8.81786 0.549518C8.55584 0.486513 8.36383 0.44451 7.69478 0.43751C6.83672 0.428509 6.10967 0.44051 5.69864 0.641525C5.42462 0.775535 5.2136 1.07456 5.34261 1.09156C5.50162 1.11256 5.86165 1.18857 6.05266 1.44858C6.29968 1.78361 6.29068 2.53767 6.29068 2.53767C6.29068 2.53767 6.43269 4.61282 5.95965 4.87084C5.63463 5.04785 5.1896 4.68683 4.23453 3.0357C3.74549 2.19064 3.37547 1.25557 3.37547 1.25557C3.37547 1.25557 3.30446 1.08156 3.17745 0.988551C3.02344 0.875542 2.80743 0.83954 2.80743 0.83954L0.521261 0.853541C0.521261 0.853541 0.178236 0.863542 0.052227 1.01255C-0.0597811 1.14556 0.0432264 1.41958 0.0432264 1.41958C0.0432264 1.41958 1.83336 5.60689 3.8595 7.71805C5.71864 9.65319 7.82879 9.52619 7.82879 9.52619H8.78486C8.78486 9.52619 9.07388 9.49418 9.22089 9.33517C9.3569 9.18916 9.3519 8.91514 9.3519 8.91514C9.3519 8.91514 9.3329 7.63204 9.92894 7.44303C10.516 7.25702 11.27 8.68312 12.0691 9.23216C12.6731 9.64719 13.1322 9.55619 13.1322 9.55619L15.2693 9.52619C15.2693 9.52619 16.3874 9.45718 15.8574 8.57811Z" fill="#C8C8C8"/>
</svg>
