<svg width="54" height="54" viewBox="0 0 54 54" fill="none" xmlns="http://www.w3.org/2000/svg">
<path d="M20.0531 4.1806C23.8091 0.15389 30.1909 0.153891 33.9469 4.1806L34.1413 4.389C35.9352 6.31209 38.3853 7.49203 41.0073 7.69546L41.2914 7.71751C46.7815 8.14348 50.7605 13.133 49.9541 18.5802L49.9124 18.8621C49.5273 21.4636 50.1324 24.1149 51.6081 26.2917L51.768 26.5275C54.858 31.0854 53.4379 37.3073 48.6764 40.0731L48.4299 40.2162C46.1559 41.5371 44.4603 43.6633 43.6785 46.1743L43.5938 46.4464C41.9569 51.704 36.2071 54.473 31.0759 52.4747L30.8103 52.3713C28.3597 51.417 25.6403 51.417 23.1897 52.3713L22.9241 52.4747C17.7929 54.473 12.0431 51.704 10.4062 46.4464L10.3215 46.1743C9.53967 43.6633 7.84411 41.5371 5.57007 40.2162L5.32364 40.0731C0.562094 37.3073 -0.857995 31.0854 2.23196 26.5275L1.8181 26.247L2.23196 26.5275L2.39188 26.2917C3.86759 24.1149 4.47273 21.4636 4.08763 18.8621L4.04589 18.5802C3.23953 13.133 7.21853 8.14348 12.7086 7.71751L12.9927 7.69546C15.6147 7.49203 18.0648 6.31209 19.8587 4.389L20.0531 4.1806Z" stroke="#D24A43"/>
</svg>
